# xmcd
#
# Track frame offsets: 
#        150
#        14828
#        29414
#        51307
#        69074
#        88237
#        114136
#        131644
#        147212
#        171920
#        193989
#        212951
#
# Disc length: 3033 seconds
#
# Revision: 0
# Processed by: cddbd v1.5.2PL0 Copyright (c) Steve Scherf et al.
# Submitted via: ExactAudioCopyFreeDBPlugin 1.0
#
DISCID=b40bd70c
DTITLE=Dede Priest - Candy Moon
DYEAR=2007
DGENRE=Blues
TTITLE0=Wade in the water
TTITLE1=Room 239
TTITLE2=Just splendid
TTITLE3=Cotton Candy
TTITLE4=Must've figured wrong
TTITLE5=Blues wine
TTITLE6=Jive man - Save me from the devil
TTITLE7=I met the moon in Holland
TTITLE8=Needy girl
TTITLE9=Baby's gone fishin
TTITLE10=Gossip lady
TTITLE11=Oh, mr Johnson
EXTD=
EXTT0=
EXTT1=
EXTT2=
EXTT3=
EXTT4=
EXTT5=
EXTT6=
EXTT7=
EXTT8=
EXTT9=
EXTT10=
EXTT11=
PLAYORDER=
